<?xml version="1.0" encoding="UTF-8" standalone="no"?>
<svg
   viewBox="0 0 128 128"
   version="1.1"
   id="svg12"
   sodipodi:docname="azure-original.svg"
   inkscape:version="1.3.2 (091e20e, 2023-11-25)"
   inkscape:export-filename="azure-original.png"
   inkscape:export-xdpi="190.3"
   inkscape:export-ydpi="190.3"
   xmlns:inkscape="http://www.inkscape.org/namespaces/inkscape"
   xmlns:sodipodi="http://sodipodi.sourceforge.net/DTD/sodipodi-0.dtd"
   xmlns:xlink="http://www.w3.org/1999/xlink"
   xmlns="http://www.w3.org/2000/svg"
   xmlns:svg="http://www.w3.org/2000/svg">
  <sodipodi:namedview
     id="namedview12"
     pagecolor="#ffffff"
     bordercolor="#000000"
     borderopacity="0.25"
     inkscape:showpageshadow="2"
     inkscape:pageopacity="0.0"
     inkscape:pagecheckerboard="0"
     inkscape:deskcolor="#d1d1d1"
     inkscape:zoom="2.0707633"
     inkscape:cx="83.302616"
     inkscape:cy="49.98157"
     inkscape:window-width="1384"
     inkscape:window-height="762"
     inkscape:window-x="0"
     inkscape:window-y="25"
     inkscape:window-maximized="0"
     inkscape:current-layer="svg12" />
  <defs
     id="defs9">
    <linearGradient
       id="linearGradient13"
       inkscape:collect="always">
      <stop
         style="stop-color:#00112b;stop-opacity:1;"
         offset="0"
         id="stop14" />
      <stop
         style="stop-color:#00112b;stop-opacity:0;"
         offset="1"
         id="stop15" />
    </linearGradient>
    <linearGradient
       id="linearGradient12"
       inkscape:collect="always">
      <stop
         style="stop-color:#00112b;stop-opacity:1;"
         offset="0"
         id="stop12" />
      <stop
         style="stop-color:#00112b;stop-opacity:0;"
         offset="1"
         id="stop13" />
    </linearGradient>
    <linearGradient
       id="azure-original-a"
       x1="60.919"
       y1="9.602"
       x2="18.667"
       y2="134.423"
       gradientUnits="userSpaceOnUse">
      <stop
         stop-color="#114A8B"
         id="stop1" />
      <stop
         offset="1"
         stop-color="#0669BC"
         id="stop2" />
    </linearGradient>
    <linearGradient
       id="azure-original-b"
       x1="74.117"
       y1="67.772"
       x2="64.344"
       y2="71.076"
       gradientUnits="userSpaceOnUse">
      <stop
         stop-opacity=".3"
         id="stop3" />
      <stop
         offset=".071"
         stop-opacity=".2"
         id="stop4" />
      <stop
         offset=".321"
         stop-opacity=".1"
         id="stop5" />
      <stop
         offset=".623"
         stop-opacity=".05"
         id="stop6" />
      <stop
         offset="1"
         stop-opacity="0"
         id="stop7" />
    </linearGradient>
    <linearGradient
       id="azure-original-c"
       x1="68.742"
       y1="5.961"
       x2="115.122"
       y2="129.525"
       gradientUnits="userSpaceOnUse">
      <stop
         stop-color="#3CCBF4"
         id="stop8" />
      <stop
         offset="1"
         stop-color="#2892DF"
         id="stop9" />
    </linearGradient>
    <radialGradient
       inkscape:collect="always"
       xlink:href="#linearGradient12"
       id="radialGradient13"
       cx="45.605499"
       cy="81.497993"
       fx="45.605499"
       fy="81.497993"
       r="38.320442"
       gradientTransform="matrix(1.1968443,0.60058489,-0.50210772,1.0005991,37.044034,-22.495244)"
       gradientUnits="userSpaceOnUse" />
    <linearGradient
       inkscape:collect="always"
       xlink:href="#linearGradient13"
       id="linearGradient15"
       x1="-12.724163"
       y1="90.245674"
       x2="69.246742"
       y2="32.971123"
       gradientUnits="userSpaceOnUse" />
  </defs>
  <path
     d="M 46.09,0.002 H 86.775 L 44.541,125.137 a 6.485,6.485 0 0 1 -6.146,4.413 H 6.733 A 6.482,6.482 0 0 1 1.471,126.851 6.474,6.474 0 0 1 0.595,121.003 L 39.944,4.414 A 6.488,6.488 0 0 1 46.09,0 Z"
     fill="url(#azure-original-a)"
     transform="matrix(0.91904,0,0,0.91904,0.587,4.468)"
     id="path9"
     style="display:inline;opacity:0.704;fill:url(#linearGradient15);fill-opacity:1" />
  <path
     d="M 97.28,81.607 H 37.987 c -2.494144,-0.0048 -3.699834,3.051851 -1.874,4.751 l 28.585353,5.11513 c 5.880805,1.052325 5.335422,26.35182 14.90915,32.43746 C 93.656346,123.20069 111.874,123.53 111.874,123.53 Z"
     fill="#0078d4"
     id="path10"
     style="display:inline;opacity:1;fill:url(#radialGradient13);fill-opacity:1"
     sodipodi:nodetypes="cccsccc" />
  <path
     d="M 46.09,0.002 A 6.434,6.434 0 0 0 39.93,4.5 L 0.644,120.897 a 6.469,6.469 0 0 0 6.106,8.653 h 32.48 a 6.942,6.942 0 0 0 5.328,-4.531 l 7.834,-23.089 27.985,26.101 a 6.618,6.618 0 0 0 4.165,1.519 h 36.396 L 104.975,83.934 58.442,83.945 86.922,0.002 Z"
     fill="url(#azure-original-b)"
     transform="matrix(0.91904,0,0,0.91904,0.587,4.468)"
     id="path11"
     style="display:none;fill:#0055d4" />
  <path
     d="M 98.055,4.408 A 6.476,6.476 0 0 0 91.917,0.002 H 46.575 a 6.478,6.478 0 0 1 6.137,4.406 l 39.35,116.594 a 6.476,6.476 0 0 1 -6.137,8.55 h 45.344 a 6.48,6.48 0 0 0 6.136,-8.55 z"
     fill="url(#azure-original-c)"
     transform="matrix(0.91904,0,0,0.91904,0.587,4.468)"
     id="path12"
     style="display:inline;fill:#00112b;opacity:1" />
</svg>
